<svg width="173" height="105" viewBox="0 0 173 105" fill="none" xmlns="http://www.w3.org/2000/svg">
<path d="M0 9.44369L9.44982 4.09396L13.531 3.95749L13.6954 8.48838C15.2019 7.12365 16.9549 5.97728 18.9544 5.10386C20.9813 4.20314 23.3369 3.71184 26.0212 3.60266C28.8973 3.49349 31.5268 3.95749 33.9098 4.99468C36.2928 6.03187 38.3471 7.47848 40.1001 9.33451C41.8531 11.1905 43.2227 13.3741 44.2087 15.8852C45.2222 18.3963 45.77 21.0711 45.8796 23.9371C46.0165 27.6218 45.6057 31.0336 44.6196 34.1725C43.6609 37.3114 42.2092 40.0681 40.2918 42.4154C38.3745 44.7628 36.0463 46.6188 33.225 47.9835C30.4312 49.3482 27.2538 50.1125 23.7204 50.249C21.9126 50.3035 20.3514 50.3035 19.0366 50.1944C17.7218 50.0852 16.4619 49.8122 15.2019 49.3755L15.914 68.6181L2.19126 69.1095L0 9.44369ZM14.7636 37.2841C14.791 38.3758 15.0375 39.3585 15.5032 40.3138C15.9414 41.2418 16.544 42.0606 17.311 42.7157C18.0779 43.398 18.9818 43.9166 20.0227 44.2715C21.0909 44.6536 22.2413 44.7901 23.5287 44.7628C24.6791 44.7082 25.7473 44.2988 26.7608 43.4799C27.7743 42.6611 28.6508 41.542 29.3629 40.15C30.0751 38.7307 30.6503 37.0657 31.0338 35.1551C31.4172 33.2445 31.5816 31.1701 31.4994 28.9047C31.3898 26.0114 31.0885 23.4731 30.5955 21.3168C30.1025 19.1605 29.4725 17.3318 28.6782 15.9125C27.8838 14.4932 26.9799 13.4014 25.9391 12.6917C24.8982 11.9821 23.8026 11.6272 22.6248 11.6818C21.7757 11.7091 20.9539 11.8729 20.1322 12.2004C19.3105 12.528 18.5436 12.9647 17.8314 13.5106C17.0918 14.0565 16.4071 14.6569 15.7771 15.3666C15.1471 16.049 14.5719 16.7859 14.0241 17.5774L14.7636 37.2841Z" fill="#5C3C3B"/>
<path d="M51.9054 14.848C52.3163 12.9647 53.0558 11.2179 54.1788 9.66207C55.3019 8.07899 56.6988 6.74156 58.397 5.59519C60.0952 4.44882 62.0674 3.5754 64.286 2.89303C66.5047 2.23797 68.9151 1.85584 71.5172 1.74666C74.7493 1.63749 77.5432 1.80125 79.8988 2.31985C82.2544 2.81115 84.2265 3.5754 85.7604 4.58529C87.3217 5.59519 88.4721 6.85073 89.239 8.32464C90.006 9.79854 90.4442 11.4635 90.499 13.3468L91.4577 39.0036C91.5125 40.8324 92.1425 42.3882 93.3476 43.6164C94.5254 44.872 96.1963 45.8546 98.3054 46.6461L82.1174 47.2466C81.6518 47.2739 81.1861 47.1647 80.7479 46.8918C80.3096 46.6461 79.8988 46.3186 79.5153 45.9091C79.1318 45.4997 78.8305 45.063 78.5292 44.5717C78.2553 44.0804 78.0362 43.6164 77.8992 43.1524C77.1049 43.9439 76.3654 44.6536 75.6532 45.3087C74.941 45.9637 74.1467 46.5369 73.2976 47.0009C72.4211 47.4649 71.4624 47.8471 70.3942 48.1473C69.3259 48.4475 68.0112 48.6113 66.5047 48.6659C64.423 48.7478 62.533 48.5294 60.8622 47.9835C59.1913 47.4649 57.7396 46.7007 56.5618 45.7181C55.3566 44.7355 54.4253 43.5345 53.768 42.1425C53.1106 40.7505 52.7271 39.222 52.6723 37.557C52.5902 34.9914 53.2202 32.7532 54.5897 30.8699C55.9592 28.9866 57.7944 27.2943 60.0952 25.8477C62.3961 24.4011 65.0256 23.091 67.9838 21.9719C70.942 20.8528 73.955 19.761 77.0227 18.6965L76.8584 14.3021C76.8036 12.8828 76.6119 11.6546 76.2832 10.672C75.9545 9.68936 75.5162 8.87053 74.9684 8.27005C74.4206 7.66957 73.7632 7.23286 72.9963 6.98721C72.2293 6.74156 71.4076 6.63238 70.5037 6.65967C69.4081 6.68697 68.4494 6.93262 67.6277 7.36933C66.7786 7.80604 66.0938 8.37923 65.4912 9.11618C64.8886 9.85313 64.423 10.672 64.0943 11.5727C63.7382 12.5007 63.4917 13.456 63.3547 14.4386L51.9054 14.848ZM77.2419 24.2646C75.9545 24.8651 74.6397 25.5748 73.325 26.4209C72.0102 27.267 70.8324 28.195 69.7916 29.2049C68.7507 30.2148 67.929 31.3339 67.2716 32.5348C66.6142 33.7358 66.3403 35.0186 66.3677 36.3561C66.4225 37.8573 66.8608 39.0036 67.6551 39.8225C68.4768 40.6413 69.5177 41.0234 70.8598 40.9688C71.9828 40.9143 73.0511 40.5594 74.1193 39.8498C75.1876 39.1401 76.3654 38.2667 77.7075 37.1476L77.2419 24.2646Z" fill="#5C3C3B"/>
<path d="M119.616 34.9919C119.26 34.2549 119.068 33.4907 119.04 32.6445L117.863 1.01022L104.222 1.52882L105.4 33.1631C105.482 35.101 105.948 36.9025 106.824 38.5674C107.701 40.2597 108.878 41.7063 110.358 42.9073C111.837 44.1355 113.535 45.0635 115.507 45.7459C117.287 46.3464 119.205 46.6193 121.177 46.592" fill="#5C3C3B"/>
<path d="M133.585 45.3634L147.061 44.8721L145.39 0L131.777 0.491301L132.955 32.3986C132.955 32.4258 132.955 32.4259 132.955 32.4531C133.01 32.7261 133.01 32.999 132.982 33.272C132.982 33.3812 132.982 33.4903 132.982 33.6268" fill="#5C3C3B"/>
<path d="M39.607 91.8461C40.4835 94.2753 41.6887 96.1313 43.2226 97.4414C44.7565 98.7516 46.6191 99.352 48.8651 99.2701C49.7964 99.2429 50.6455 99.0791 51.4124 98.8334C52.1794 98.5878 52.8368 98.2057 53.3846 97.769C53.9324 97.3322 54.3706 96.8136 54.6446 96.2678C54.9459 95.6946 55.0554 95.0941 55.028 94.4663C55.0006 93.4291 54.7541 92.4738 54.3433 91.655C53.905 90.8362 53.3298 90.0992 52.6176 89.4714C51.8781 88.8164 51.029 88.2432 50.0429 87.6973C49.0568 87.1514 47.9886 86.6601 46.8656 86.2234C45.0578 85.4864 43.25 84.7222 41.4422 83.8488C39.6618 83.0026 38.0183 81.9927 36.5666 80.8737C35.1149 79.7546 33.9371 78.4445 33.0058 76.9433C32.0745 75.4694 31.5815 73.7225 31.5267 71.73C31.4446 69.8194 31.7732 68.0726 32.5128 66.4895C33.2523 64.9064 34.3206 63.5144 35.7175 62.368C37.1144 61.1943 38.7853 60.2663 40.7574 59.584C42.7296 58.9016 44.9208 58.5195 47.3312 58.4103C49.5225 58.3284 51.4946 58.4649 53.1928 58.8197C54.9185 59.1745 56.4249 59.6931 57.7397 60.4028C59.0545 61.1125 60.2323 61.9859 61.2731 63.0504C62.314 64.1148 63.2453 65.3158 64.0944 66.6532L56.288 69.6556C55.8224 68.2363 55.2745 67.1445 54.6719 66.3803C54.0693 65.616 53.412 65.0429 52.7546 64.688C52.0972 64.3059 51.4672 64.0876 50.8372 64.033C50.2072 63.9784 49.6868 63.9511 49.1938 63.9511C48.3447 63.9784 47.5503 64.1148 46.7834 64.3332C46.0438 64.5516 45.3591 64.8518 44.7839 65.2066C44.2087 65.5887 43.7704 66.0255 43.4143 66.5441C43.0856 67.0627 42.9213 67.6631 42.9487 68.3455C42.9761 69.1916 43.2226 69.9832 43.6882 70.7201C44.1539 71.4571 44.7839 72.1394 45.6056 72.7672C46.4273 73.395 47.386 73.9682 48.4542 74.514C49.5499 75.0599 50.7277 75.5785 52.015 76.0425C53.9598 76.7522 55.8224 77.571 57.6849 78.4718C59.5201 79.3725 61.1636 80.4097 62.6153 81.556C64.067 82.7024 65.2448 84.0125 66.1487 85.4591C67.0526 86.9057 67.5456 88.5161 67.6004 90.3448C67.6826 92.3101 67.4087 94.1388 66.8334 95.8583C66.2582 97.5779 65.2448 99.0791 63.8479 100.389C62.4509 101.699 60.6157 102.764 58.3423 103.583C56.0689 104.402 53.275 104.866 50.0155 104.975C47.1943 105.084 44.8113 104.838 42.8391 104.265C40.867 103.692 39.1961 102.928 37.7992 101.972C36.4023 101.017 35.2519 99.9252 34.3206 98.697C33.3893 97.4687 32.5676 96.2678 31.8554 95.0668L39.607 91.8461Z" fill="#5C3C3B"/>
<path d="M98.3056 103.228C95.1009 103.337 92.0879 102.873 89.2393 101.781C86.3906 100.689 83.8707 99.2155 81.7068 97.2776C79.5429 95.3397 77.8173 93.1016 76.5026 90.4813C75.1878 87.8883 74.4756 85.1043 74.3661 82.1565C74.2291 78.6355 74.6674 75.3329 75.6808 72.2486C76.6943 69.1916 78.1734 66.5168 80.1455 64.224C82.1177 61.9313 84.5007 60.1025 87.3219 58.7651C90.1432 57.4277 93.2931 56.6907 96.8265 56.5543C99.9491 56.4451 102.852 56.8272 105.509 57.7279C108.166 58.6286 110.44 59.9115 112.357 61.5492C114.274 63.2141 115.808 65.1793 116.904 67.4721C118.027 69.7648 118.63 72.2486 118.712 74.8962L87.541 76.0425C87.7602 78.5263 88.1984 80.8737 88.938 83.1118C89.6501 85.35 90.5814 87.2879 91.6771 88.9528C92.8001 90.6178 94.0874 91.9279 95.5392 92.8832C96.9909 93.8385 98.5795 94.2752 100.333 94.2207C101.812 94.1661 103.291 93.8658 104.715 93.2926C106.139 92.7195 107.454 91.9825 108.659 91.0545C109.865 90.1265 110.878 89.0347 111.754 87.8337C112.631 86.6055 113.234 85.3227 113.59 83.9306L120.574 84.7768C119.972 87.2333 118.931 89.5533 117.452 91.7369C116 93.9204 114.274 95.8583 112.248 97.5506C110.248 99.2429 108.029 100.58 105.646 101.59C103.236 102.6 100.798 103.146 98.3056 103.228ZM102.88 70.8566C102.716 69.5464 102.387 68.3455 101.894 67.281C101.401 66.2165 100.798 65.2885 100.059 64.5243C99.3191 63.76 98.47 63.1868 97.5387 62.8047C96.58 62.4226 95.5665 62.2315 94.4709 62.2861C93.6218 62.3134 92.8001 62.5591 91.9784 63.0231C91.184 63.4871 90.4719 64.1148 89.8145 64.9064C89.1571 65.6979 88.6641 66.6532 88.2532 67.7723C87.8423 68.8914 87.5958 70.1196 87.4863 71.4571L102.88 70.8566Z" fill="#5C3C3B"/>
<path d="M159.305 97.3324C157.661 98.5334 155.881 99.4887 153.963 100.198C152.019 100.908 150.101 101.317 148.184 101.372C145.363 101.481 142.706 100.935 140.186 99.7889C137.666 98.6153 135.447 97.0049 133.503 94.9578C131.585 92.9107 130.051 90.5088 128.873 87.8066C127.723 85.0772 127.093 82.2113 126.984 79.2089C126.874 76.2065 127.394 73.2587 128.6 70.3382C129.777 67.4449 131.448 64.852 133.612 62.5319C135.776 60.2392 138.323 58.3559 141.282 56.9093C144.24 55.4627 147.417 54.6711 150.868 54.5346C152.183 54.4801 153.443 54.5347 154.593 54.6984C155.771 54.8622 156.812 55.1078 157.771 55.4081L157.086 37.1754L166.399 31.8256L170.48 31.6619L173 99.3795L159.414 99.8708L159.305 97.3324ZM158.264 69.492C158.209 68.0727 157.935 66.7626 157.442 65.5889C156.949 64.4153 156.292 63.4054 155.525 62.5592C154.758 61.7131 153.881 61.0853 152.923 60.6486C151.964 60.2119 151.033 60.0208 150.074 60.0481C148.841 60.1027 147.691 60.5394 146.595 61.3856C145.5 62.2317 144.568 63.3781 143.801 64.8247C143.035 66.2713 142.405 67.9635 141.994 69.9287C141.555 71.8939 141.391 73.9956 141.473 76.2884C141.555 78.7722 141.939 81.1195 142.596 83.3576C143.254 85.5958 144.103 87.5337 145.116 89.1987C146.157 90.8636 147.335 92.2011 148.65 93.1564C149.992 94.139 151.361 94.603 152.84 94.5484C153.333 94.5211 153.881 94.4392 154.456 94.2481C155.032 94.0571 155.607 93.8114 156.182 93.5112C156.73 93.2109 157.278 92.8288 157.771 92.4194C158.264 92.01 158.702 91.546 159.058 91.0274L158.264 69.492Z" fill="#5C3C3B"/>
</svg>
